#!OML:ASF F:\VICON\USERDATA\INSTALL\rory3\rory3.ASF
:FULLY-SPECIFIED
:DEGREES
5364
root -1.55699 16.2906 0.0900888 8.59405 -47.9249 -0.634917
lowerback 11.9763 7.81879 2.55813
upperback -0.749909 10.6937 -0.967545
thorax -6.7832 5.11561 -4.25258
lowerneck -23.1057 -1.10452 -8.25647
upperneck 22.9412 -1.45339 10.256
head 11.4301 -0.0696535 4.9776
rclavicle 4.02539e-014 9.54166e-015
rhumerus 16.7455 -1.1929 -59.598
rradius 123.121
rwrist -9.69084
rhand -13.0468 21.6567
rfingers 7.12502
rthumb 13.0481 -7.91521
lclavicle 4.02539e-014 9.54166e-015
lhumerus -22.0538 -19.9911 83.886
lradius 123.002
lwrist 2.21317
lhand -11.1658 6.75069
lfingers 7.12502
lthumb 14.8608 36.1977
rfemur 4.68502 -11.3782 14.3722
rtibia 37.1425
rfoot -32.7967 -7.87895
rtoes -20.052
lfemur -49.3184 -9.15239 -6.88855
ltibia 51.3516
lfoot -5.6073 -10.0276
ltoes -20.1426
5365
root -1.54014 16.2401 0.140226 8.99852 -49.5155 -1.41118
lowerback 12.3105 8.29814 3.53576
upperback -0.702611 11.4753 -1.01003
thorax -6.66 5.46788 -4.96682
lowerneck -22.8343 -1.4456 -8.36163
upperneck 23.1373 -1.91676 10.1917
head 11.5056 -0.304325 4.90141
rclavicle 2.59414e-014 2.46493e-014
rhumerus 23.9586 -0.133426 -59.8747
rradius 113.772
rwrist -8.16201
rhand -10.6408 20.8307
rfingers 7.12502
rthumb 15.3665 -8.57825
lclavicle 2.59414e-014 2.46493e-014
lhumerus -22.661 -18.2233 83.6616
lradius 123.922
lwrist 1.62896
lhand -10.5649 7.02928
lfingers 7.12502
lthumb 15.4396 36.4326
rfemur 4.57426 -11.7736 14.0687
rtibia 37.3976
rfoot -33.3481 -7.43909
rtoes -20.8564
lfemur -49.0113 -7.21629 -7.07188
ltibia 52.7024
lfoot -6.93252 -9.44435
ltoes -20.5957
5366
root -1.52406 16.1907 0.1989 9.48631 -51.366 -2.35212
lowerback 12.6524 8.62455 4.42248
upperback -0.636759 12.0615 -0.819854
thorax -6.58576 5.72909 -5.3616
lowerneck -22.708 -1.62272 -8.54164
upperneck 23.6878 -2.06883 9.89632
head 11.706 -0.434345 4.81622
rclavicle -6.08281e-014 -1.03368e-014
rhumerus 31.4252 2.00142 -60.4791
rradius 102.326
rwrist -5.66002
rhand -8.30176 20.1573
rfingers 7.12502
rthumb 17.6185 -9.06443
lclavicle -6.08281e-014 -1.03368e-014
lhumerus -23.8359 -15.6684 83.9082
lradius 125.153
lwrist 0.887562
lhand -9.59254 6.94754
lfingers 7.12502
lthumb 16.376 36.2762
rfemur 4.53181 -12.0731 13.706
rtibia 37.5883
rfoot -33.7761 -6.76397
rtoes -21.3759
lfemur -48.4484 -5.07328 -7.2715
ltibia 53.8749
lfoot -8.53887 -8.69546
ltoes -21.4161
5367
root -1.51 16.146 0.257135 9.76112 -53.4278 -3.21022
lowerback 13.1748 8.8289 5.10899
upperback -0.596547 12.478 -0.527603
thorax -6.71125 5.90196 -5.56085
lowerneck -22.2311 -1.60812 -8.58076
upperneck 24.2709 -1.97145 9.3982
head 11.8192 -0.474705 4.6636
rclavicle -8.06072e-014 1.43125e-014
rhumerus 38.7127 5.15172 -61.2387
rradius 88.7259
rwrist -0.914685
rhand -7.76664 19.7949
rfingers 7.12502
rthumb 18.1334 -9.37987
lclavicle -8.06072e-014 1.43125e-014
lhumerus -25.4965 -12.6696 84.3965
lradius 126.681
lwrist 0.230055
lhand -8.56598 6.92746
lfingers 7.12502
lthumb 17.3642 36.1718
rfemur 4.66879 -11.9697 13.2054
rtibia 37.7013
rfoot -34.1468 -5.73691
rtoes -20.453
lfemur -47.5477 -2.83033 -7.5561
ltibia 54.8148
lfoot -10.0244 -8.08195
ltoes -19.9277
5368
root -1.5062 16.1168 0.324233 10.1603 -55.5854 -4.12499
lowerback 13.6026 9.04666 5.68347
upperback -0.609954 12.898 -0.272775
thorax -6.85163 6.07741 -5.73126
lowerneck -21.9236 -1.61072 -8.21405
upperneck 24.9751 -2.0031 8.78261
head 12.0236 -0.548326 4.38117
rclavicle -2.19657e-014 -5.56597e-015
rhumerus 45.5406 8.61245 -61.4336
rradius 73.8997
rwrist 5.27154
rhand -9.38773 18.1617
rfingers 7.12502
rthumb 16.5732 -11.1506
lclavicle -2.19657e-014 -5.56597e-015
lhumerus -27.1676 -9.93513 84.8681
lradius 128.355
lwrist -0.281861
lhand -7.9023 7.00691
lfingers 7.12502
lthumb 18.0028 36.1937
rfemur 4.75963 -11.4552 12.7205
rtibia 37.7703
rfoot -34.3159 -4.59004
rtoes -19.6469
lfemur -46.5631 -0.556017 -7.79477
ltibia 55.5208
lfoot -11.2456 -7.67315
ltoes -15.9751
5369
root -1.51132 16.1008 0.400283 10.4872 -57.8621 -4.67388
lowerback 13.8396 9.3495 5.77143
upperback -0.754559 13.3534 -0.0664238
thorax -7.11628 6.27773 -5.69303
lowerneck -21.5672 -1.71069 -7.79221
upperneck 25.7002 -2.24576 8.33079
head 12.2515 -0.690627 4.11668
rclavicle 4.96962e-016 1.03368e-014
rhumerus 51.3034 12.1869 -60.2394
rradius 60.2594
rwrist 9.9752
rhand -4.15531 15.5007
rfingers 7.12502
rthumb 21.6048 -13.3141
lclavicle 4.96962e-016 1.03368e-014
lhumerus -28.8389 -7.49857 85.4361
lradius 130.2
lwrist -0.555799
lhand -7.11626 6.86967
lfingers 7.12502
lthumb 18.759 35.9851
rfemur 4.61228 -10.637 11.9712
rtibia 37.8212
rfoot -34.2571 -3.20543
rtoes -18.4994
lfemur -45.6653 1.68953 -8.29045
ltibia 56.0727
lfoot -12.3676 -7.01669
ltoes -14.1596
5370
root -1.51909 16.0871 0.477996 10.0376 -60.1042 -4.37493
lowerback 13.879 9.55937 5.51052
upperback -0.724826 13.5937 -0.0218396
thorax -7.14756 6.40346 -5.55632
lowerneck -20.7106 -1.78285 -7.76844
upperneck 25.7613 -2.53304 8.64062
head 12.1362 -0.79666 4.17847
rclavicle -4.52235e-014 -7.95139e-015
rhumerus 56.0062 16.2371 -56.8308
rradius 49.9519
rwrist 14.2348
rhand -0.76805 19.1993
rfingers 7.12502
rthumb 24.8545 -9.20511
lclavicle -4.52235e-014 -7.95139e-015
lhumerus -29.9476 -5.22565 85.7678
lradius 132.118
lwrist -0.741635
lhand -6.52752 6.50187
lfingers 7.12502
lthumb 19.3252 35.5616
rfemur 4.49931 -9.56039 10.7679
rtibia 37.8685
rfoot -33.9472 -1.95604
rtoes -17.4674
lfemur -44.7107 3.54133 -9.10331
ltibia 56.597
lfoot -13.3657 -6.32917
ltoes -14.1632
5371
root -1.52757 16.068 0.560729 9.48005 -61.9307 -4.16716
lowerback 13.8641 9.55027 5.62617
upperback -0.475294 13.5721 -0.137011
thorax -6.81587 6.41209 -5.69163
lowerneck -19.7503 -1.79727 -7.77406
upperneck 25.0766 -2.88446 9.64448
head 11.7304 -0.847067 4.47348
rclavicle 2.76311e-014 3.73715e-014
rhumerus 59.9815 20.2754 -51.4329
rradius 43.6015
rwrist 19.202
rhand 1.64489 19.7491
rfingers 7.12502
rthumb 27.1649 -8.31559
lclavicle 2.76311e-014 3.73715e-014
lhumerus -29.9622 -3.41477 85.5046
lradius 134.052
lwrist -1.19024
lhand -6.35943 5.95685
lfingers 7.12502
lthumb 19.4868 35.0003
rfemur 4.60154 -8.27466 9.80869
rtibia 37.9629
rfoot -33.4595 -1.38127
rtoes -18.6134
lfemur -43.8215 4.88057 -9.60057
ltibia 57.2642
lfoot -14.0368 -6.06262
ltoes -13.5456
5372
root -1.5383 16.0451 0.642275 9.33321 -63.1829 -4.43638
lowerback 13.8546 9.55997 5.28284
upperback -0.272496 13.5404 0.214051
thorax -6.76054 6.41728 -5.13413
lowerneck -19.4553 -1.96581 -7.44832
upperneck 24.7737 -3.37937 10.1166
head 11.6143 -0.989128 4.50508
rclavicle 2.25621e-014 2.38542e-014
rhumerus 63.0845 24.2027 -44.023
rradius 41.6875
rwrist 22.7238
rhand 3.62876 20.4375
rfingers 7.12502
rthumb 29.0612 -7.31569
lclavicle 2.25621e-014 2.38542e-014
lhumerus -29.3756 -2.13327 85.5843
lradius 136.034
lwrist -2.25449
lhand -6.43778 5.56386
lfingers 7.12502
lthumb 19.4115 34.615
rfemur 4.80122 -6.81497 9.3821
rtibia 38.1378
rfoot -33.0375 -0.970727
rtoes -19.4686
lfemur -43.3131 5.74816 -9.70192
ltibia 58.1601
lfoot -14.2515 -5.97022
ltoes -13.8964
5373
root -1.55436 16.023 0.71577 9.53336 -64.0599 -4.99064
lowerback 13.5443 9.20827 5.54959
upperback 0.0980126 13.0577 0.0295434
thorax -6.13809 6.2147 -5.27934
lowerneck -19.8724 -2.50662 -6.97907
upperneck 24.5644 -4.51347 10.909
head 11.7578 -1.35066 4.54291
rclavicle -3.51849e-014 2.38542e-015
rhumerus 65.4382 27.2243 -38.5159
rradius 43.5899
rwrist 23.2295
rhand 2.27205 21.9382
rfingers 7.12502
rthumb 27.7647 -6.03129
lclavicle -3.51849e-014 2.38542e-015
lhumerus -27.4321 -1.27802 84.0822
lradius 138.044
lwrist -3.33897
lhand -6.84103 5.8757
lfingers 7.12502
lthumb 19.0237 34.9654
rfemur 4.95963 -5.35386 9.27132
rtibia 38.3349
rfoot -32.5248 -0.469349
rtoes -19.4017
lfemur -43.1922 6.48848 -9.62736
ltibia 59.2787
lfoot -14.2191 -6.00593
ltoes -15.9715
5374
root -1.57445 16.0092 0.783389 10.0281 -64.8049 -5.80812
lowerback 13.3244 8.83043 5.29542
upperback 0.281365 12.501 0.148712
thorax -5.96356 5.96328 -4.89306
lowerneck -19.9433 -2.78924 -6.80135
upperneck 24.4072 -5.20438 11.6849
head 11.8144 -1.55333 4.69333
rclavicle -2.9122e-014 -4.77083e-015
rhumerus 66.2653 30.3819 -34.875
rradius 47.6497
rwrist 22.6362
rhand -0.0883685 21.4541
rfingers 7.12502
rthumb 25.5057 -6.8588
lclavicle -2.9122e-014 -4.77083e-015
lhumerus -25.6153 -0.603572 82.5001
lradius 140.017
lwrist -4.46488
lhand -9.61397 4.50968
lfingers 7.12502
lthumb 16.3554 33.8401
rfemur 5.03217 -3.9251 9.37466
rtibia 38.5526
rfoot -31.869 -0.192465
rtoes -19.4108
lfemur -43.2873 7.38447 -9.40888
ltibia 60.5667
lfoot -13.8946 -6.56237
ltoes -16.964
5375
root -1.59816 16.0138 0.850857 11.2411 -65.3933 -7.34371
lowerback 12.8664 8.3648 5.22443
upperback 0.565616 11.8458 0.428202
thorax -5.55134 5.67235 -4.37261
lowerneck -19.8632 -2.91921 -6.94366
upperneck 24.1106 -5.52622 12.3596
head 11.7528 -1.64014 4.91385
rclavicle 1.28713e-013 5.56597e-015
rhumerus 65.7367 33.4476 -33.6685
rradius 52.8117
rwrist 20.2851
rhand -2.82263 20.1327
rfingers 7.12502
rthumb 22.8842 -8.52944
lclavicle 1.28713e-013 5.56597e-015
lhumerus -23.3622 0.192071 80.5596
lradius 141.595
lwrist -4.64251
lhand -12.0911 2.74277
lfingers 7.12502
lthumb 13.9692 32.2535
rfemur 5.01395 -2.67949 9.837
rtibia 38.809
rfoot -31.0475 0.0295846
rtoes -19.381
lfemur -43.5742 8.2501 -8.77835
ltibia 61.9604
lfoot -13.0084 -7.6494
ltoes -15.2093
